# xmcd
#
# Track frame offsets:
#       150
#       25447
#       52713
#       84093
#       112999
#       170470
#       190367
#       228503
#       240768
#       270803
#       289732
#
# Disc length: 4186 seconds
#
# Revision: 1
# Processed by: cddbd v1.4PL0 Copyright (c) Steve Scherf et al.
# Submitted via: WhereIsIt 3.22
#
DISCID=7b10580b
DTITLE=Freddy King - Key to the Highway
DYEAR=1900
DGENRE=
TTITLE0=Key to the highway (5:37)
TTITLE1=Sweet home Chicago (6:03)
TTITLE2=Got my mojo working (6:58)
TTITLE3=Big legged woman (6:25)
TTITLE4=Have you ever loved a woman (12:46)
TTITLE5=Hideaway (4:25)
TTITLE6=Boogie chillun (8:28)
TTITLE7=Whole lottal lovin' (2:43)
TTITLE8=Have you even loved a woman (6:40)
TTITLE9=Look on yonders wall (4:12)
TTITLE10=It ain't nobody's business (5:23)
EXTD=
EXTT0=
EXTT1=
EXTT2=
EXTT3=
EXTT4=
EXTT5=
EXTT6=
EXTT7=
EXTT8=
EXTT9=
EXTT10=
PLAYORDER=
